<svg xmlns="http://www.w3.org/2000/svg" width="256" height="256" viewBox="0 0 256 256">
  <defs>
    <linearGradient id="bg" x1="0%" y1="0%" x2="100%" y2="100%">
      <stop offset="0%" stop-color="#4da3ff"/>
      <stop offset="55%" stop-color="#2f6dff"/>
      <stop offset="100%" stop-color="#2148cf"/>
    </linearGradient>
    <linearGradient id="shine" x1="0%" y1="0%" x2="0%" y2="100%">
      <stop offset="0%" stop-color="#ffffff" stop-opacity="0.35"/>
      <stop offset="100%" stop-color="#ffffff" stop-opacity="0"/>
    </linearGradient>
  </defs>

  <rect x="16" y="16" width="224" height="224" rx="56" fill="url(#bg)" />
  <rect x="24" y="24" width="208" height="96" rx="40" fill="url(#shine)" />

  <path
    d="M80 68h54c33 0 52 14 52 40 0 14-7 25-20 32 16 6 25 19 25 36 0 30-21 46-60 46H80V68zm47 62c14 0 23-6 23-18 0-10-8-16-22-16h-13v34h12zm6 63c15 0 24-7 24-20 0-13-9-20-25-20h-17v40h18z"
    fill="#f8fbff"
  />
</svg>
